<svg width="24" height="24" viewBox="0 0 24 24" fill="none" xmlns="http://www.w3.org/2000/svg">
<path fill-rule="evenodd" clip-rule="evenodd" d="M19.0208 17.5978C19.4113 17.2073 19.4113 16.5742 19.0208 16.1836L14.4853 11.6481L18.9982 7.13525C19.3887 6.74473 19.3887 6.11156 18.9982 5.72104L17.584 4.30683C17.1934 3.9163 16.5603 3.9163 16.1697 4.30683L11.6569 8.8197L7.13007 4.29289C6.73954 3.90237 6.10638 3.90237 5.71585 4.29289L4.30164 5.70711C3.91111 6.09763 3.91111 6.7308 4.30164 7.12132L8.82844 11.6481L4.29289 16.1837C3.90237 16.5742 3.90237 17.2074 4.29289 17.5979L5.70711 19.0121C6.09763 19.4026 6.7308 19.4026 7.12132 19.0121L11.6569 14.4766L16.1924 19.0121C16.5829 19.4026 17.2161 19.4026 17.6066 19.0121L19.0208 17.5978Z" fill="white"/>
</svg>
