<svg width="48" height="48" viewBox="0 0 48 48" fill="none" xmlns="http://www.w3.org/2000/svg">
<path fill-rule="evenodd" clip-rule="evenodd" d="M11 4C10.4477 4 10 4.44772 10 5V10H5C4.44772 10 4 10.4477 4 11L4 13C4 13.5523 4.44772 14 5 14H10V19C10 19.5523 10.4477 20 11 20H13C13.5523 20 14 19.5523 14 19V14H19C19.5523 14 20 13.5523 20 13V11C20 10.4477 19.5523 10 19 10H14V5C14 4.44772 13.5523 4 13 4H11Z" fill="black"/>
<path fill-rule="evenodd" clip-rule="evenodd" d="M19.435 42.012C19.8255 41.6215 19.8255 40.9883 19.435 40.5978L14.8995 36.0623L19.4124 31.5494C19.8029 31.1589 19.8029 30.5257 19.4124 30.1352L17.9981 28.721C17.6076 28.3305 16.9744 28.3305 16.5839 28.721L12.0711 33.2339L7.54425 28.7071C7.15373 28.3166 6.52056 28.3166 6.13004 28.7071L4.71582 30.1213C4.3253 30.5118 4.3253 31.145 4.71582 31.5355L9.24263 36.0623L4.70708 40.5979C4.31655 40.9884 4.31655 41.6215 4.70708 42.0121L6.12129 43.4263C6.51182 43.8168 7.14498 43.8168 7.53551 43.4263L12.0711 38.8907L16.6066 43.4262C16.9971 43.8168 17.6303 43.8168 18.0208 43.4262L19.435 42.012Z" fill="black"/>
<rect x="44" y="10" width="4" height="16" rx="1" transform="rotate(90 44 10)" fill="black"/>
<rect x="44" y="34" width="4" height="16" rx="1" transform="rotate(90 44 34)" fill="black"/>
<circle cx="36" cy="30" r="2" fill="black"/>
<circle cx="36" cy="42" r="2" fill="black"/>
</svg>
