<svg width="24" height="24" viewBox="0 0 24 24" fill="currentColor" xmlns="http://www.w3.org/2000/svg">
<path fill-rule="evenodd" clip-rule="evenodd" d="M5.5 2C5.22385 2 5 2.22386 5 2.5V5H2.5C2.22385 5 2 5.22385 2 5.5V6.5C2 6.77614 2.22385 7 2.5 7H5V9.5C5 9.77615 5.22385 10 5.5 10H6.5C6.77615 10 7 9.77615 7 9.5V7H9.5C9.77615 7 10 6.77615 10 6.5V5.5C10 5.22385 9.77615 5 9.5 5H7V2.5C7 2.22386 6.77615 2 6.5 2H5.5Z" fill="currentColor"/>
<path fill-rule="evenodd" clip-rule="evenodd" d="M9.71751 21.006C9.91276 20.8108 9.91276 20.4942 9.71751 20.2989L7.44975 18.0312L9.70618 15.7747C9.90144 15.5795 9.90144 15.2629 9.70618 15.0676L8.99906 14.3605C8.80381 14.1652 8.48722 14.1652 8.29197 14.3605L6.03553 16.6169L3.77213 14.3535C3.57688 14.1583 3.26029 14.1583 3.06501 14.3535L2.35792 15.0606C2.16267 15.2559 2.16267 15.5725 2.35792 15.7677L4.62132 18.0312L2.35355 20.2989C2.15827 20.4942 2.15827 20.8108 2.35355 21.006L3.06065 21.7131C3.2559 21.9084 3.57249 21.9084 3.76774 21.7131L6.03553 19.4454L8.30329 21.7131C8.49854 21.9084 8.81513 21.9084 9.01038 21.7131L9.71751 21.006Z" fill="currentColor"/>
<rect x="22" y="5" width="2" height="8" rx="0.5" transform="rotate(90 22 5)" fill="currentColor"/>
<rect x="22" y="17" width="2" height="8" rx="0.5" transform="rotate(90 22 17)" fill="currentColor"/>
<circle cx="18" cy="15" r="1" fill="currentColor"/>
<circle cx="18" cy="21" r="1" fill="currentColor"/>
</svg>
